<?xml version="1.0" encoding="utf-8"?>
<!-- Generator: Adobe Illustrator 25.4.1, SVG Export Plug-In . SVG Version: 6.00 Build 0)  -->
<svg version="1.1" xmlns="http://www.w3.org/2000/svg" xmlns:xlink="http://www.w3.org/1999/xlink" x="0px" y="0px"
	 viewBox="0 0 1296 1297" style="enable-background:new 0 0 1296 1297;" xml:space="preserve">
<style type="text/css">
	.st0{fill:#FBB03B;stroke:#FFFF00;stroke-width:14;stroke-miterlimit:10;}
	.st1{fill:#FCEE21;}
	.st2{stroke:#000000;stroke-width:5;stroke-miterlimit:10;}
	.st3{display:none;}
	.st4{display:inline;fill:#CCCCCC;stroke:#FFFFFF;stroke-width:14;stroke-miterlimit:10;}
	.st5{display:inline;}
	.st6{fill:#E6E6E6;}
	.st7{fill:none;stroke:#FFFFFF;stroke-width:5;stroke-miterlimit:10;}
	.st8{fill:#FFFFFF;stroke:#FFFFFF;stroke-width:5;stroke-miterlimit:10;}
	.st9{display:inline;stroke:#000000;stroke-width:5;stroke-miterlimit:10;}
</style>
<g id="Layer_1">
	<circle id="sun_00000128451022566885180780000007177173238182622084_" class="st0" cx="648.28" cy="659.8" r="334.92"/>
	<g id="Rays_00000001637321199529315320000003980794293277820599_">
		<g>
			<path class="st1" d="M323.88,879.46c9.53-5.5,12.82-17.79,7.32-27.32l-7.51-13c-5.5-9.53-17.79-12.82-27.32-7.32l-126.5,73.03
				c-9.53,5.5-12.82,17.79-7.32,27.32l7.51,13c5.5,9.53,17.79,12.82,27.32,7.32L323.88,879.46z"/>
		</g>
		<g>
			<path class="st1" d="M259.01,619.91c10.83,1.91,21.26-5.39,23.17-16.22l2.61-14.78c1.91-10.83-5.39-21.26-16.22-23.17
				l-143.85-25.36c-10.83-1.91-21.26,5.39-23.17,16.22l-2.61,14.78c-1.91,10.83,5.39,21.26,16.22,23.17L259.01,619.91z"/>
		</g>
		<g>
			<path class="st1" d="M376.15,379.38c7.07,8.43,19.75,9.54,28.18,2.47l11.5-9.65c8.43-7.07,9.54-19.75,2.47-28.18L324.4,232.13
				c-7.07-8.43-19.75-9.54-28.18-2.47l-11.5,9.65c-8.43,7.07-9.54,19.75-2.47,28.18L376.15,379.38z"/>
		</g>
		<g>
			<path class="st1" d="M620.49,270.43c0,11,9,20,20,20h15.01c11,0,20-9,20-20V124.36c0-11-9-20-20-20h-15.01c-11,0-20,9-20,20
				V270.43z"/>
		</g>
		<g>
			<path class="st1" d="M877.71,344.02c-7.07,8.43-5.96,21.11,2.47,28.18l11.5,9.65c8.43,7.07,21.11,5.96,28.18-2.47l93.89-111.89
				c7.07-8.43,5.96-21.11-2.47-28.18l-11.5-9.65c-8.43-7.07-21.11-5.96-28.18,2.47L877.71,344.02z"/>
		</g>
		<g>
			<path class="st1" d="M1027.44,565.73c-10.83,1.91-18.13,12.34-16.22,23.17l2.61,14.78c1.91,10.83,12.34,18.13,23.17,16.22
				l143.85-25.36c10.83-1.91,18.13-12.34,16.22-23.17l-2.61-14.78c-1.91-10.83-12.34-18.13-23.17-16.22L1027.44,565.73z"/>
		</g>
		<g>
			<path class="st1" d="M999.62,831.82c-9.53-5.5-21.82-2.21-27.32,7.32l-7.51,13c-5.5,9.53-2.21,21.82,7.32,27.32l126.5,73.03
				c9.53,5.5,21.82,2.21,27.32-7.32l7.51-13c5.5-9.53,2.21-21.82-7.32-27.32L999.62,831.82z"/>
		</g>
		<g>
			<path class="st1" d="M807.28,1017.77c-3.76-10.34-15.3-15.72-25.63-11.95l-14.11,5.13c-10.34,3.76-15.72,15.3-11.95,25.63
				l49.96,137.26c3.76,10.34,15.3,15.72,25.63,11.95l14.11-5.13c10.34-3.76,15.72-15.3,11.95-25.63L807.28,1017.77z"/>
		</g>
		<g>
			<path class="st1" d="M540.41,1036.59c3.76-10.34-1.62-21.87-11.95-25.63l-14.11-5.13c-10.34-3.76-21.87,1.62-25.63,11.95
				l-49.96,137.26c-3.76,10.34,1.62,21.87,11.95,25.63l14.11,5.13c10.34,3.76,21.87-1.62,25.63-11.95L540.41,1036.59z"/>
		</g>
	</g>
	<g id="Shades_00000037688300825776837570000006352251764357098393_">
		<path class="st2" d="M613.2,575.26c29.69-28.01,42.63-27.29,69.6,0l-7.29-25.49c-18.6-9.98-32.08-12.13-55.01,0L613.2,575.26z"/>
		<path class="st2" d="M705.45,626.36c-39.3-62.88-34.9-95.06-17.11-96.96c0,0,31.47-9.42,154.17,11.43
			c127.02,23.95,12.2,117.45-10.76,116.11C798.97,656.53,774.31,658.21,705.45,626.36z"/>
		<path class="st2" d="M590.26,626.36c39.3-62.88,34.9-95.06,17.11-96.96c0,0-31.47-9.42-154.17,11.43
			c-127.02,23.95-12.2,117.45,10.76,116.11C496.73,656.53,521.4,658.21,590.26,626.36z"/>
	</g>
	<path class="st2" d="M623.34,884.43c122.98-14.56,157.08-27.78,200.76-74.7c31.64-32.36,53.93-11.51,48.81,8.36
		c-44.9,53.39-114.88,89.8-234.7,104.9C606.75,919.21,600.29,893.73,623.34,884.43z"/>
</g>
<g id="Layer_2" class="st3">
	<circle id="sun_00000098220998837764474370000005663782437034653862_" class="st4" cx="648.28" cy="659.8" r="334.92"/>
	<g id="Rays" class="st5">
		<g>
			<path class="st6" d="M323.88,879.46c9.53-5.5,12.82-17.79,7.32-27.32l-7.51-13c-5.5-9.53-17.79-12.82-27.32-7.32l-126.5,73.03
				c-9.53,5.5-12.82,17.79-7.32,27.32l7.51,13c5.5,9.53,17.79,12.82,27.32,7.32L323.88,879.46z"/>
			<path class="st7" d="M323.88,879.46c9.53-5.5,12.82-17.79,7.32-27.32l-7.51-13c-5.5-9.53-17.79-12.82-27.32-7.32l-126.5,73.03
				c-9.53,5.5-12.82,17.79-7.32,27.32l7.51,13c5.5,9.53,17.79,12.82,27.32,7.32L323.88,879.46z"/>
		</g>
		<g>
			<path class="st6" d="M259.01,619.91c10.83,1.91,21.26-5.39,23.17-16.22l2.61-14.78c1.91-10.83-5.39-21.26-16.22-23.17
				l-143.85-25.36c-10.83-1.91-21.26,5.39-23.17,16.22l-2.61,14.78c-1.91,10.83,5.39,21.26,16.22,23.17L259.01,619.91z"/>
			<path class="st7" d="M259.01,619.91c10.83,1.91,21.26-5.39,23.17-16.22l2.61-14.78c1.91-10.83-5.39-21.26-16.22-23.17
				l-143.85-25.36c-10.83-1.91-21.26,5.39-23.17,16.22l-2.61,14.78c-1.91,10.83,5.39,21.26,16.22,23.17L259.01,619.91z"/>
		</g>
		<g>
			<path class="st6" d="M376.15,379.38c7.07,8.43,19.75,9.54,28.18,2.47l11.5-9.65c8.43-7.07,9.54-19.75,2.47-28.18L324.4,232.13
				c-7.07-8.43-19.75-9.54-28.18-2.47l-11.5,9.65c-8.43,7.07-9.54,19.75-2.47,28.18L376.15,379.38z"/>
			<path class="st7" d="M376.15,379.38c7.07,8.43,19.75,9.54,28.18,2.47l11.5-9.65c8.43-7.07,9.54-19.75,2.47-28.18L324.4,232.13
				c-7.07-8.43-19.75-9.54-28.18-2.47l-11.5,9.65c-8.43,7.07-9.54,19.75-2.47,28.18L376.15,379.38z"/>
		</g>
		<g>
			<path class="st6" d="M620.49,270.43c0,11,9,20,20,20h15.01c11,0,20-9,20-20V124.36c0-11-9-20-20-20h-15.01c-11,0-20,9-20,20
				V270.43z"/>
			<path class="st7" d="M620.49,270.43c0,11,9,20,20,20h15.01c11,0,20-9,20-20V124.36c0-11-9-20-20-20h-15.01c-11,0-20,9-20,20
				V270.43z"/>
		</g>
		<g>
			<path class="st6" d="M877.71,344.02c-7.07,8.43-5.96,21.11,2.47,28.18l11.5,9.65c8.43,7.07,21.11,5.96,28.18-2.47l93.89-111.89
				c7.07-8.43,5.96-21.11-2.47-28.18l-11.5-9.65c-8.43-7.07-21.11-5.96-28.18,2.47L877.71,344.02z"/>
			<path class="st7" d="M877.71,344.02c-7.07,8.43-5.96,21.11,2.47,28.18l11.5,9.65c8.43,7.07,21.11,5.96,28.18-2.47l93.89-111.89
				c7.07-8.43,5.96-21.11-2.47-28.18l-11.5-9.65c-8.43-7.07-21.11-5.96-28.18,2.47L877.71,344.02z"/>
		</g>
		<g>
			<path class="st6" d="M1027.44,565.73c-10.83,1.91-18.13,12.34-16.22,23.17l2.61,14.78c1.91,10.83,12.34,18.13,23.17,16.22
				l143.85-25.36c10.83-1.91,18.13-12.34,16.22-23.17l-2.61-14.78c-1.91-10.83-12.34-18.13-23.17-16.22L1027.44,565.73z"/>
			<path class="st7" d="M1027.44,565.73c-10.83,1.91-18.13,12.34-16.22,23.17l2.61,14.78c1.91,10.83,12.34,18.13,23.17,16.22
				l143.85-25.36c10.83-1.91,18.13-12.34,16.22-23.17l-2.61-14.78c-1.91-10.83-12.34-18.13-23.17-16.22L1027.44,565.73z"/>
		</g>
		<g>
			<path class="st6" d="M999.62,831.82c-9.53-5.5-21.82-2.21-27.32,7.32l-7.51,13c-5.5,9.53-2.21,21.82,7.32,27.32l126.5,73.03
				c9.53,5.5,21.82,2.21,27.32-7.32l7.51-13c5.5-9.53,2.21-21.82-7.32-27.32L999.62,831.82z"/>
			<path class="st7" d="M999.62,831.82c-9.53-5.5-21.82-2.21-27.32,7.32l-7.51,13c-5.5,9.53-2.21,21.82,7.32,27.32l126.5,73.03
				c9.53,5.5,21.82,2.21,27.32-7.32l7.51-13c5.5-9.53,2.21-21.82-7.32-27.32L999.62,831.82z"/>
		</g>
		<g>
			<path class="st6" d="M807.28,1017.77c-3.76-10.34-15.3-15.72-25.63-11.95l-14.11,5.13c-10.34,3.76-15.72,15.3-11.95,25.63
				l49.96,137.26c3.76,10.34,15.3,15.72,25.63,11.95l14.11-5.13c10.34-3.76,15.72-15.3,11.95-25.63L807.28,1017.77z"/>
			<path class="st7" d="M807.28,1017.77c-3.76-10.34-15.3-15.72-25.63-11.95l-14.11,5.13c-10.34,3.76-15.72,15.3-11.95,25.63
				l49.96,137.26c3.76,10.34,15.3,15.72,25.63,11.95l14.11-5.13c10.34-3.76,15.72-15.3,11.95-25.63L807.28,1017.77z"/>
		</g>
		<g>
			<path class="st6" d="M540.41,1036.59c3.76-10.34-1.62-21.87-11.95-25.63l-14.11-5.13c-10.34-3.76-21.87,1.62-25.63,11.95
				l-49.96,137.26c-3.76,10.34,1.62,21.87,11.95,25.63l14.11,5.13c10.34,3.76,21.87-1.62,25.63-11.95L540.41,1036.59z"/>
			<path class="st7" d="M540.41,1036.59c3.76-10.34-1.62-21.87-11.95-25.63l-14.11-5.13c-10.34-3.76-21.87,1.62-25.63,11.95
				l-49.96,137.26c-3.76,10.34,1.62,21.87,11.95,25.63l14.11,5.13c10.34,3.76,21.87-1.62,25.63-11.95L540.41,1036.59z"/>
		</g>
	</g>
	<g id="Shades" class="st5">
		<path class="st8" d="M613.2,575.26c29.69-28.01,42.63-27.29,69.6,0l-7.29-25.49c-18.6-9.98-32.08-12.13-55.01,0L613.2,575.26z"/>
		<path class="st7" d="M705.45,626.36c-39.3-62.88-34.9-95.06-17.11-96.96c0,0,31.47-9.42,154.17,11.43
			c127.02,23.95,12.2,117.45-10.76,116.11C798.97,656.53,774.31,658.21,705.45,626.36z"/>
		<path class="st7" d="M590.26,626.36c39.3-62.88,34.9-95.06,17.11-96.96c0,0-31.47-9.42-154.17,11.43
			c-127.02,23.95-12.2,117.45,10.76,116.11C496.73,656.53,521.4,658.21,590.26,626.36z"/>
	</g>
	<path class="st9" d="M623.34,884.43c122.98-14.56,157.08-27.78,200.76-74.7c31.64-32.36,53.93-11.51,48.81,8.36
		c-44.9,53.39-114.88,89.8-234.7,104.9C606.75,919.21,600.29,893.73,623.34,884.43z"/>
	<circle class="st9" cx="546.43" cy="592.11" r="23.11"/>
	<circle class="st9" cx="757.22" cy="592.11" r="23.11"/>
</g>
</svg>
